<svg xmlns="http://www.w3.org/2000/svg" xmlns:xlink="http://www.w3.org/1999/xlink" width="17" height="17" viewBox="0 0 17 17">
  <defs>
    <style>
      .cls-1 {
        fill: #fff;
        fill-rule: evenodd;
        filter: url(#filter);
      }
    </style>
    <filter id="filter" x="0" y="0" width="17" height="17" filterUnits="userSpaceOnUse">
      <feFlood result="flood" flood-color="#f14836"/>
      <feComposite result="composite" operator="in" in2="SourceGraphic"/>
      <feBlend result="blend" in2="SourceGraphic"/>
    </filter>
  </defs>
  <path class="cls-1" d="M1.92,0.975a1.284,1.284,0,0,1-.961.96A1.284,1.284,0,0,1,0,.975,1.258,1.258,0,0,1,.959.014,1.258,1.258,0,0,1,1.92.975ZM0.976,17A1.258,1.258,0,0,1,.015,16.04a1.258,1.258,0,0,1,.961-0.961,1.259,1.259,0,0,1,.962.961A1.259,1.259,0,0,1,.976,17ZM3.755,2.793a1.258,1.258,0,0,1-.961.96,1.258,1.258,0,0,1-.961-0.96,1.284,1.284,0,0,1,.961-0.962A1.284,1.284,0,0,1,3.755,2.793ZM2.811,15.166a1.258,1.258,0,0,1-.961-0.96,1.26,1.26,0,0,1,.961-0.962,1.26,1.26,0,0,1,.961.962A1.258,1.258,0,0,1,2.811,15.166Zm1.835-1.852a1.26,1.26,0,0,1-.962-0.961,1.26,1.26,0,0,1,.962-0.962,1.26,1.26,0,0,1,.961.962A1.26,1.26,0,0,1,4.646,13.314ZM5.59,4.645a1.261,1.261,0,0,1-.944.961A1.261,1.261,0,0,1,3.7,4.645a1.264,1.264,0,0,1,.944-0.961A1.264,1.264,0,0,1,5.59,4.645ZM7.443,6.463a1.281,1.281,0,0,1-.961.979A1.281,1.281,0,0,1,5.52,6.463,1.285,1.285,0,0,1,6.481,5.5,1.285,1.285,0,0,1,7.443,6.463ZM6.481,11.478a1.258,1.258,0,0,1-.961-0.961,1.258,1.258,0,0,1,.961-0.96,1.258,1.258,0,0,1,.961.96A1.258,1.258,0,0,1,6.481,11.478ZM8.509,9.731A1.633,1.633,0,0,1,7.25,8.49,1.635,1.635,0,0,1,8.509,7.249,1.635,1.635,0,0,1,9.767,8.49,1.633,1.633,0,0,1,8.509,9.731Zm2.027-2.289A1.281,1.281,0,0,1,9.557,6.48a1.28,1.28,0,0,1,.979-0.961,1.284,1.284,0,0,1,.961.961A1.285,1.285,0,0,1,10.536,7.442Zm0.944,3.075a1.257,1.257,0,0,1-.962.961,1.257,1.257,0,0,1-.961-0.961,1.258,1.258,0,0,1,.961-0.96A1.258,1.258,0,0,1,11.48,10.517Zm0.874-4.945a1.238,1.238,0,0,1-.961-0.945,1.239,1.239,0,0,1,.961-0.943,1.239,1.239,0,0,1,.961.943A1.238,1.238,0,0,1,12.354,5.572Zm0.961,6.781a1.239,1.239,0,0,1-.944.961,1.24,1.24,0,0,1-.944-0.961,1.24,1.24,0,0,1,.944-0.962A1.239,1.239,0,0,1,13.315,12.353Zm0.891-8.6a1.258,1.258,0,0,1-.961-0.96,1.258,1.258,0,0,1,.961-0.962,1.284,1.284,0,0,1,.962.962A1.284,1.284,0,0,1,14.206,3.754Zm0.962,10.434a1.258,1.258,0,0,1-.962.961,1.258,1.258,0,0,1-.961-0.961,1.283,1.283,0,0,1,.961-0.961A1.283,1.283,0,0,1,15.168,14.188ZM16.024,1.919A1.285,1.285,0,0,1,15.063.957,1.284,1.284,0,0,1,16.024,0a1.259,1.259,0,0,1,.961.961A1.26,1.26,0,0,1,16.024,1.919ZM17,16.023a1.258,1.258,0,0,1-.961.961,1.258,1.258,0,0,1-.961-0.961,1.259,1.259,0,0,1,.961-0.961A1.259,1.259,0,0,1,17,16.023Z"/>
</svg>
