<svg xmlns="http://www.w3.org/2000/svg" xmlns:xlink="http://www.w3.org/1999/xlink" width="9" height="29" viewBox="0 0 9 29">
  <defs>
    <style>
      .cls-1 {
        fill: #fff;
        fill-rule: evenodd;
        filter: url(#filter);
      }
    </style>
    <filter id="filter" x="0" y="0" width="9" height="29" filterUnits="userSpaceOnUse">
      <feFlood result="flood" flood-color="#f14836"/>
      <feComposite result="composite" operator="in" in2="SourceGraphic"/>
      <feBlend result="blend" in2="SourceGraphic"/>
    </filter>
  </defs>
  <path class="cls-1" d="M8.991,19.459L8.975,8.157a0.61,0.61,0,0,0-1.22-.005L7.771,19.462l0.01,4.9c0,2.269-1.1,3.355-3.455,3.42-2.073-.09-3.1-1.218-3.1-3.445v-21A2.312,2.312,0,0,1,3.647,1.209a2.047,2.047,0,0,1,1.5.563,2.156,2.156,0,0,1,.664,1.588V19.082c0,1.627-.719,1.627-1.233,1.627-0.443,0-1.27,0-1.27-1.419L3.319,9.411s-0.006-.6-0.006-0.592a0.605,0.605,0,0,0-1.21,0S2.086,19.29,2.086,19.29a2.335,2.335,0,0,0,2.49,2.625c1.952,0,2.453-1.617,2.453-2.833V3.359A3.346,3.346,0,0,0,5.988.9,3.263,3.263,0,0,0,3.619,0,3.484,3.484,0,0,0,.005,3.34v21c0,2.839,1.572,4.534,4.312,4.651C7.353,28.911,9,27.268,9,24.367Z"/>
</svg>
